<?xml version="1.0" encoding="UTF-8" standalone="no"?>
<!-- Created with Inkscape (http://www.inkscape.org/) -->

<svg
   width="199.37749mm"
   height="187.12337mm"
   viewBox="0 0 199.37749 187.12337"
   version="1.1"
   id="svg5"
   xml:space="preserve"
   inkscape:export-filename="hilarious-potato.png"
   inkscape:export-xdpi="95.559998"
   inkscape:export-ydpi="95.559998"
   inkscape:version="1.2.2 (b0a8486, 2022-12-01)"
   sodipodi:docname="hilarious-potato.svg"
   xmlns:inkscape="http://www.inkscape.org/namespaces/inkscape"
   xmlns:sodipodi="http://sodipodi.sourceforge.net/DTD/sodipodi-0.dtd"
   xmlns="http://www.w3.org/2000/svg"
   xmlns:svg="http://www.w3.org/2000/svg"><sodipodi:namedview
     id="namedview7"
     pagecolor="#ffffff"
     bordercolor="#000000"
     borderopacity="0.25"
     inkscape:showpageshadow="2"
     inkscape:pageopacity="0.0"
     inkscape:pagecheckerboard="0"
     inkscape:deskcolor="#d1d1d1"
     inkscape:document-units="mm"
     showgrid="false"
     inkscape:zoom="0.25732566"
     inkscape:cx="483.82271"
     inkscape:cy="635.38164"
     inkscape:window-width="1034"
     inkscape:window-height="967"
     inkscape:window-x="8"
     inkscape:window-y="25"
     inkscape:window-maximized="0"
     inkscape:current-layer="layer1" /><defs
     id="defs2" /><g
     inkscape:label="Layer 1"
     inkscape:groupmode="layer"
     id="layer1"
     transform="translate(-2.461809,-17.313471)"><g
       id="g48"
       transform="matrix(1.6536458,0,0,1.6536458,-3.5978602,4.1988572)"><path
         d="m 3.84,82.02 c -1.59,-16.7 7.93,-29.95 16,-35.29 8.25,-5.46 12.1,-6.24 13.96,-7.29 8.57,-4.82 14.6,-15.57 26.12,-23.5 13.11,-9.02 31.04,-10.36 42.04,-4.33 10.03,5.5 20.31,17.48 17.56,41.33 -2.75,23.85 -62.67,63.1 -72.95,63.66 C 36.29,117.16 6.24,107.26 3.84,82.02 Z"
         fill="#b8885a"
         id="path9" /><path
         d="M 70.64,76.69 C 65.93,79.45 48.24,96.98 27.94,96.5 7.64,96.02 4.52,86.21 4.52,86.21 c 0,0 2.91,17.1 16.91,27.23 15.84,11.46 32.64,6.95 37.54,5.85 7.27,-1.63 13.69,-4.97 20.12,-8.46 6.43,-3.49 29.29,-14.5 38.27,-31.83 9.91,-19.12 7.55,-34.44 2.6,-45.58 -5.24,-11.79 -10.35,-16.12 -10.35,-16.12 0,0 4.76,24.69 -5.32,38.43 -14.3,19.49 -28.94,18.2 -33.65,20.96 z"
         fill="#875b52"
         id="path11" /><path
         d="m 63.23,97.17 c 0.06,1.26 4.55,1.16 7.81,0.63 3.45,-0.56 6.3,-0.61 6.78,-1.94 0.48,-1.33 -4.78,-5.96 -7.88,-5.8 -1.94,0.11 -6.8,5.27 -6.71,7.11 z"
         fill="#513531"
         id="path13" /><path
         d="m 86.59,99.6 c 0.67,0.97 3.45,-0.51 4.47,-1.84 1.02,-1.33 2.17,-3.9 1.25,-4.47 -0.92,-0.57 -3.55,-0.56 -4.85,1.04 -1.29,1.61 -1.54,4.3 -0.87,5.27 z"
         fill="#513531"
         id="path15" /><path
         d="m 117.25,38.28 c -1.09,-1.92 -3.04,2.62 -3.13,4.19 -0.09,1.57 1.09,2.49 2.4,2.77 1.29,0.27 4.23,-0.79 0.73,-6.96 z"
         fill="#513531"
         id="path17" /><path
         d="m 29.08,107.08 c -0.88,1.49 0.57,2.57 2.04,3.57 1.16,0.79 4,1.21 4.56,0.33 0.57,-0.88 -0.55,-2.07 -2.67,-3.85 -1.45,-1.21 -3.05,-1.54 -3.93,-0.05 z"
         fill="#513531"
         id="path19" /><path
         d="m 17.4,84.24 c -1.25,0.87 -0.24,4.73 -0.07,5.47 0.17,0.74 5.15,1 5.89,-0.14 0.74,-1.14 -0.82,-2.79 -1.92,-3.94 -1.1,-1.14 -2.65,-2.26 -3.9,-1.39 z"
         fill="#875b52"
         id="path21" /><path
         d="m 26.3,75.25 c 1.54,2.09 4.33,-0.42 4.78,-2.29 0.48,-2.01 -1.21,-3.32 -3.12,-2.13 -1.53,0.94 -2.56,3.21 -1.66,4.42 z"
         fill="#875b52"
         id="path23" /><path
         d="m 46.22,35.46 c -2,-0.84 -2.76,0.92 -3.51,2.7 -0.75,1.78 -3.17,5.02 -1.65,5.47 1.52,0.45 5.1,0.24 5.99,-1.21 0.89,-1.46 1.17,-6.11 -0.83,-6.96 z"
         fill="#875b52"
         id="path25" /><path
         d="m 12.07,79.48 c 2.2,0.99 5.62,-3.69 7.19,-5.94 2.31,-3.31 5.79,-7.49 13.94,-12.54 11.18,-6.92 22.85,-5.18 28.85,-10.39 6,-5.21 9.48,-15.54 14.06,-20.66 8.37,-9.36 17.06,-2.97 18.27,-7.5 1.21,-4.53 -4.99,-8.38 -12.31,-8.37 -7.31,0.02 -15.67,2.71 -23.27,15 -7.6,12.29 -9.49,16.05 -16.54,18.27 -7.05,2.23 -15.81,5.17 -24.25,14.56 -4.69,5.22 -9.61,15.92 -5.94,17.57 z"
         fill="#d9ac82"
         id="path27" /><path
         d="m 82.77,33.82 c 0.43,3.2 4.83,4.94 7.42,4.97 2.43,0.03 4.18,-1.55 4.15,-3.16 -0.03,-1.93 -3.17,-2.82 -4.4,-3.3 -2.41,-0.93 -2.97,-2.95 -5.22,-2.23 -2.04,0.66 -2.01,3.23 -1.95,3.72 z"
         fill="#875b52"
         id="path29" /></g><path
       style="fill:#000000;stroke-width:0.264583"
       id="path376"
       d="m 113.30112,42.592333 c -0.92357,0.371587 -1.77703,0.858171 -2.57364,1.451391 -0.80509,0.621599 -1.10043,1.653722 -1.4498,2.569734 -0.27092,0.751599 -0.48279,1.519756 -0.4736,2.322142 0.127,0.838472 0.45638,1.624346 0.84372,2.372426 0.29406,0.593939 0.67161,1.145299 1.10028,1.649489 0.49346,0.582504 1.10173,1.037085 1.70255,1.499193 1.88639,1.25341 3.90343,2.307971 5.9538,3.266987 1.02142,0.581584 2.15832,0.842931 3.26643,1.18781 0.9384,0.303099 1.8789,0.348332 2.85113,0.264742 0.90983,-0.02858 1.77102,-0.248166 2.61644,-0.566801 0.54679,-0.266996 0.97745,-0.646231 1.38283,-1.090215 0.51551,-0.550884 0.87413,-1.233443 1.16847,-1.922762 0.20076,-0.562777 0.37331,-1.138158 0.53439,-1.714172 0.14669,-0.590579 0.19479,-1.197385 0.2174,-1.803421 0.0709,-0.617053 -0.0786,-1.208579 -0.19218,-1.808795 -0.0605,-0.585036 -0.21177,-1.148646 -0.3879,-1.707808 -0.23703,-0.591064 -0.3773,-1.21134 -0.62739,-1.797376 -0.24168,-0.526542 -0.50485,-1.04254 -0.76963,-1.557729 -0.21343,-0.427543 -0.53948,-0.770779 -0.91084,-1.063919 -1.66357,-1.029096 -3.39849,-2.242407 -5.3084,-2.850755 -0.61778,-0.251442 -1.24543,-0.483008 -1.89954,-0.617038 -0.55301,-0.07193 -1.10886,0.0062 -1.65589,-0.102462 -0.54707,-0.158036 -1.14812,-0.136028 -1.67736,-0.344305 -0.37703,-0.180173 -0.78766,-0.247838 -1.19696,-0.307898 -0.36885,-0.0878 -0.67668,0.104745 -1.02284,0.196699 -0.39792,0.0284 -0.69952,0.227152 -1.0493,0.38141 -0.34322,0.286475 -0.75586,0.529275 -1.04893,0.871492 -0.25292,0.187471 -0.44135,0.388917 -0.58201,0.67097 -0.0553,0.127157 -0.029,0.055 -0.0723,0.218753 0,0 3.5174,1.874763 3.5174,1.874763 v 0 c 0.003,-0.08843 -0.005,-0.04516 0.0234,-0.129754 0.10695,-0.248156 0.3272,-0.385908 0.51314,-0.574942 0.28171,-0.287401 0.62387,-0.539515 0.96902,-0.741741 0.31749,-0.167386 0.65537,-0.237347 1.00245,-0.326377 0.32112,-0.09347 0.59899,-0.144722 0.92896,-0.04921 0.39743,0.07672 0.77532,0.212829 1.16062,0.333934 0.5658,0.104933 1.13393,0.19845 1.70175,0.291399 0.54902,0.03897 1.10779,0.01175 1.64622,0.142885 0.63231,0.164481 1.23906,0.410975 1.8517,0.635196 0.37854,0.145833 0.74131,0.306779 1.10313,0.490492 0.0975,0.04952 0.38548,0.20683 0.29115,0.151427 -2.9205,-1.715355 -4.18169,-2.349603 -2.87928,-1.689201 0.35684,0.278122 0.7456,0.522941 0.97813,0.921441 0.29775,0.491871 0.52851,1.023995 0.78399,1.538504 0.30494,0.55916 0.42097,1.171282 0.64073,1.763763 0.22901,0.517117 0.34484,1.084225 0.42141,1.643028 0.0941,0.57943 0.289,1.141132 0.22681,1.734317 -0.0172,0.576665 -0.0447,1.156412 -0.17543,1.720628 -0.15167,0.563076 -0.33286,1.117208 -0.49669,1.676254 -0.26984,0.652241 -0.61548,1.283129 -1.10801,1.79531 -0.37292,0.3859 -0.77653,0.727053 -1.27569,0.941876 -0.81934,0.297765 -1.66864,0.446757 -2.54074,0.482426 -0.9457,0.04901 -1.86496,-0.08728 -2.76794,-0.378063 -1.10858,-0.312619 -2.19601,-0.676326 -3.2157,-1.224074 -1.0502,-0.499504 -0.0643,-0.02831 -1.02892,-0.495371 -0.13771,-0.06668 -0.54473,-0.277792 -0.41387,-0.198512 5.31367,3.219088 3.42946,1.951688 2.21856,1.334212 -0.5831,-0.470977 -1.2257,-0.868625 -1.72431,-1.436876 -0.45056,-0.465171 -0.8349,-0.98979 -1.14424,-1.559877 -0.37872,-0.709695 -0.73901,-1.423757 -0.9112,-2.218378 -0.0857,-0.747083 0.15357,-1.481473 0.37405,-2.188292 0.31654,-0.852485 0.58819,-1.805686 1.34817,-2.370071 0.76012,-0.571945 1.59598,-1.035042 2.50619,-1.323605 0,0 -3.26389,-2.23529 -3.26389,-2.23529 z" /><circle
       id="path378"
       style="fill:#000000;stroke:#000000;stroke-width:0.264583"
       cx="118.8727"
       cy="50.893509"
       r="0.048421185" /><circle
       id="path380"
       style="fill:#000000;stroke:#000000;stroke-width:0.264583"
       cx="118.8727"
       cy="50.893509"
       r="0.048421185" /><path
       style="fill:#000000;stroke-width:0.264583"
       id="path382"
       d="m 120.46967,51.991296 c 0.98526,-0.171719 1.64283,-0.753694 1.97307,-1.675037 0.70981,-1.623933 -4.37589,-3.646186 -3.29876,-1.455843 0.0294,0.383767 0.46979,-0.755912 -0.0411,-0.02596 0,0 3.42905,2.032185 3.42905,2.032185 v 0 c 0.0946,-0.112043 0.61878,-0.525698 0.27149,-0.452445 -0.12628,-0.0816 -0.29931,-0.363604 -0.30089,-0.364535 -4.6518,-2.751812 -3.31499,-3.225332 -3.53209,-1.640393 -0.23021,0.838618 -0.87197,1.215834 -1.72602,1.299477 0,0 3.22524,2.282537 3.22524,2.282537 z" /><path
       style="fill:#000000;stroke-width:0.264583"
       id="path384"
       d="m 166.50525,74.973195 c -0.85264,-0.442275 -1.6798,-0.845738 -2.62207,-1.06004 -0.8978,-0.32721 -1.8066,-0.442542 -2.75359,-0.37846 -0.99315,0.341651 -1.93571,0.847868 -2.79769,1.445884 -0.69186,0.40816 -1.21183,0.997162 -1.55851,1.714334 -0.3327,0.828064 -0.35057,1.727605 -0.38217,2.606799 -0.0931,1.070544 0.0774,2.102358 0.38651,3.123435 0.22323,0.796804 0.58637,1.534004 0.95859,2.268466 0.40412,0.793004 0.9443,1.492475 1.52939,2.157569 0.73266,0.938382 1.60186,1.712812 2.59457,2.361583 2.38779,1.091486 4.70276,3.213434 7.42805,3.619612 1.33703,0.05776 2.51727,-0.495594 3.6144,-1.199571 0.92845,-0.649285 1.75927,-1.415219 2.44711,-2.314276 0.64992,-1.020725 0.93794,-2.170779 1.11726,-3.351371 0.16362,-1.051259 0.13643,-2.10089 0.002,-3.15095 -0.10284,-0.666964 -0.40972,-1.26906 -0.6758,-1.880899 -0.16215,-0.373417 -0.39391,-0.704572 -0.65548,-1.013653 -0.26256,-0.31655 -0.58255,-0.568626 -0.91343,-0.809045 -0.48826,-0.320337 -0.98815,-0.619199 -1.45902,-0.965862 -1.26547,-0.925052 -0.52321,-0.392837 -3.75132,-2.172266 -1.08552,-0.598368 2.15035,1.233514 3.22571,1.849956 0.055,0.03153 -0.10959,-0.06382 -0.16467,-0.09523 -3.64773,-2.080168 -2.2413,-1.750304 -3.80963,-2.092003 -0.46536,-0.22257 -0.96987,-0.333525 -1.47297,-0.432149 -0.0502,-0.0089 -0.10042,-0.01786 -0.15063,-0.02678 0,0 3.17449,2.399511 3.17449,2.399511 v 0 c 0.047,0.0097 0.094,0.01939 0.14096,0.02909 0.49473,0.112942 0.96946,0.283223 1.4425,0.465563 1.31416,0.613762 0.37497,0.182105 -3.03008,-1.77746 -0.0561,-0.03229 0.10659,0.07375 0.16266,0.106124 1.19287,0.688719 2.36915,1.407613 3.58389,2.056987 1.0344,0.552966 -4.61847,-2.545744 -3.03687,-1.777402 0.46434,0.355211 0.93284,0.711277 1.45943,0.970696 0.32323,0.239559 0.6515,0.441812 0.93118,0.729456 0.26913,0.278445 0.52718,0.563713 0.7172,0.904669 0.2716,0.587904 0.56962,1.165831 0.74799,1.790488 0.14991,1.021286 0.23298,2.033447 0.0667,3.062605 -0.15176,1.118722 -0.40917,2.207644 -1.02505,3.173222 -0.66123,0.86007 -1.47427,1.584465 -2.36737,2.199844 -1.05105,0.647012 -2.17683,1.130408 -3.44061,0.964072 -0.66337,-0.15295 -0.59999,-0.110042 -1.24222,-0.375462 -1.32423,-0.547267 -4.91106,-2.641621 0.58121,0.530228 -0.99418,-0.6129 -1.92138,-1.291066 -2.61272,-2.253464 -0.58723,-0.638652 -1.14934,-1.299081 -1.56768,-2.064801 -0.37863,-0.716065 -0.74755,-1.441513 -0.9944,-2.215488 -0.34526,-0.97164 -0.53671,-1.962695 -0.44431,-2.998486 0.0248,-0.823725 0.0328,-1.669767 0.32212,-2.452219 0.31804,-0.657252 0.8012,-1.174054 1.43036,-1.551699 0.81695,-0.547601 1.71454,-1.058194 2.68525,-1.258166 0.92286,-0.01638 1.80178,0.193347 2.67977,0.468564 0.91664,0.265446 1.73833,0.721223 2.59111,1.141688 0,0 -3.09192,-2.473243 -3.09192,-2.473243 z" /><path
       style="fill:#000000;stroke-width:0.264583"
       id="path386"
       d="m 165.34749,81.357966 c -0.21079,0.292185 -0.43519,0.567537 -0.69093,0.820659 0,0 3.37819,2.058847 3.37819,2.058847 v 0 c 0.24776,-0.274498 0.47736,-0.562274 0.71296,-0.84726 0,0 -3.40022,-2.032246 -3.40022,-2.032246 z" /><path
       style="fill:#000000;stroke-width:0.264583"
       id="path388"
       d="m 163.83111,81.489517 c -0.738,0.310325 -1.52442,0.610087 -1.99019,1.293874 -0.15779,0.29215 -0.15715,0.615786 -0.11188,0.935074 0.004,0.05433 -0.0106,0.112834 0.0106,0.162978 0.0332,0.07865 0.1114,0.133916 0.18504,0.177144 1.29671,0.761201 2.46232,1.904272 3.96178,2.117765 0.47963,0.07393 0.90295,0.07084 1.3577,-0.09219 0.31598,-0.09854 0.55278,-0.244525 0.78421,-0.479486 0.16407,-0.24415 0.21355,-0.518938 0.23871,-0.805378 0.0148,-0.127392 0.005,-0.254754 -0.002,-0.382202 0,0 -3.61691,-1.669997 -3.61691,-1.669997 v 0 c 0.11681,0.05529 0.0748,0.106582 0.0784,0.223724 -0.003,0.186044 0.003,0.381381 -0.0926,0.548108 -0.18632,0.172847 -0.42987,0.243507 -0.66788,0.32298 -0.40799,0.08817 -0.83352,0.01259 -1.23654,-0.07552 -1.27585,-0.44957 -2.83522,-1.644719 2.89781,1.753735 0.0386,0.02289 -0.091,-0.01765 -0.12708,-0.04433 -0.0309,-0.02289 -0.0256,-0.08868 -0.0632,-0.0965 -0.0407,-0.0084 -0.0726,0.04051 -0.10886,0.06077 -0.0832,-0.204499 -0.13512,-0.438211 -0.0638,-0.652309 0.38598,-0.609825 1.19542,-0.824619 1.83084,-1.062945 0,0 -3.26389,-2.23529 -3.26389,-2.23529 z" /><path
       style="fill:#000000;stroke-width:0.264583"
       id="path390"
       d="m 86.319198,76.257162 c 0.876593,2.154185 1.855366,4.268028 2.970495,6.309011 1.097396,2.052095 2.554004,3.876723 4.028911,5.665713 1.367726,1.608267 2.891126,3.078742 4.415398,4.537194 1.892094,1.908966 4.022918,3.542464 6.176628,5.139566 2.45484,1.863614 5.11307,3.425874 7.75017,5.011034 3.22642,1.93673 6.54813,3.7037 9.83337,5.53613 2.05832,1.08137 4.10443,2.17895 6.23467,3.11282 2.69045,1.09871 5.43251,2.06999 8.15517,3.08693 2.57288,0.9916 5.2282,1.73694 7.88949,2.44679 0,0 -3.04123,-2.33261 -3.04123,-2.33261 v 0 c -2.65202,-0.70184 -5.29063,-1.46317 -7.84875,-2.46193 -2.72866,-1.01207 -5.47982,-1.974 -8.15643,-3.11834 -2.11611,-0.9566 -4.16222,-2.05217 -6.21342,-3.13966 -1.43446,-0.79812 -2.87343,-1.58775 -4.31083,-2.38053 -0.362,-0.19965 -1.438,-0.8158 -1.0859,-0.59917 0.68796,0.42325 1.39602,0.81294 2.09402,1.2194 -2.64378,-1.58684 -5.32478,-3.12586 -7.78997,-4.987425 -2.13281,-1.575449 -4.25473,-3.178586 -6.12557,-5.067136 -1.523218,-1.455764 -3.050415,-2.917074 -4.441506,-4.500637 -1.484207,-1.768237 -2.946011,-3.577238 -4.066937,-5.603912 -1.119889,-1.987349 -2.107457,-4.056639 -2.89913,-6.197266 0,0 -3.568649,-1.675972 -3.568649,-1.675972 z" /><path
       style="fill:#000000;stroke-width:0.264583"
       id="path392"
       d="m 86.358668,77.011968 c -1.401273,1.163312 -2.776389,2.342224 -4.005389,3.688041 -1.033749,1.115877 -1.589591,2.483458 -2.064033,3.901873 -0.787935,2.15142 -1.277118,4.376849 -1.574086,6.643272 -0.325176,2.994666 -0.414996,6.00523 -0.238728,9.011276 0.283202,3.49606 1.337027,6.88858 2.290529,10.24945 1.103659,3.89863 2.570456,7.67659 4.186756,11.38727 1.08204,2.12347 2.237206,4.53065 4.346808,5.84117 1.461995,0.90821 2.983378,1.71714 4.475067,2.57571 3.584075,1.25351 7.426658,1.21831 11.175338,1.19716 3.25634,-0.0795 6.49497,-0.36885 9.72308,-0.78593 2.42475,-0.26483 4.75981,-0.94546 7.09913,-1.59626 1.74928,-0.42382 3.44684,-1.02909 5.16341,-1.56655 1.8183,-0.55476 3.66328,-1.01202 5.48501,-1.55504 1.75169,-0.37918 3.36899,-1.05528 4.85793,-2.04308 0.95018,-0.64586 1.94124,-1.23682 2.80722,-1.996 0.45363,-0.41726 0.97137,-0.75969 1.43652,-1.15864 0.31096,-0.3047 0.70303,-0.49885 1.07378,-0.7175 0.50782,-0.25554 0.86197,-0.70764 1.27196,-1.08557 0.36768,-0.23969 0.55768,-0.55937 0.72507,-0.9508 0.0281,-0.06 0.0562,-0.12007 0.0843,-0.18011 0,0 -3.45669,-1.95635 -3.45669,-1.95635 v 0 c -0.029,0.0618 -0.0579,0.12368 -0.0869,0.18552 -0.159,0.33777 -0.31477,0.60247 -0.63771,0.8226 -0.38043,0.36873 -0.7376,0.7691 -1.22313,1.00392 -0.39663,0.21797 -0.78455,0.45987 -1.11337,0.77396 -0.4817,0.3828 -0.95632,0.77318 -1.41477,1.18466 -0.85088,0.74133 -1.82784,1.31563 -2.74111,1.97493 -1.46459,0.95774 -3.06981,1.56554 -4.77464,1.96069 -1.82373,0.53204 -3.66827,0.99093 -5.47995,1.56468 -1.71735,0.52484 -3.42106,1.0943 -5.15544,1.56042 -2.31233,0.66264 -4.62947,1.31439 -7.03059,1.57663 -3.19245,0.42864 -6.39881,0.7059 -9.62007,0.80114 -3.742299,0.0117 -7.604104,0.0136 -11.130399,-1.40313 0.673571,0.40816 1.299413,0.90822 2.020713,1.22447 0.42492,0.18631 -0.769155,-0.52319 -1.118262,-0.82879 -1.4987,-1.31192 -2.450446,-3.11297 -3.342298,-4.85758 -1.667778,-3.69202 -3.159443,-7.46682 -4.27155,-11.36712 -0.914374,-3.32642 -1.920415,-6.67379 -2.210705,-10.12492 -0.230058,-2.983191 -0.167275,-5.977706 0.187047,-8.950628 0.317767,-2.231046 0.811112,-4.426143 1.607362,-6.540259 0.477735,-1.354868 1.013667,-2.678221 1.985566,-3.765849 1.210961,-1.350505 2.575989,-2.53284 4.034316,-3.612128 0,0 -3.347082,-2.086608 -3.347082,-2.086608 z" /><path
       style="fill:#000000;stroke-width:0.264583"
       id="path394"
       d="m 117.53731,34.111461 c 2.50765,-0.906491 5.1885,-1.01541 7.82624,-1.063445 2.58698,-0.08298 5.1555,0.416764 7.5345,1.436508 0.50894,0.218154 1.93907,1.059021 1.48901,0.736438 -0.63613,-0.455951 -1.36832,-0.760206 -2.05248,-1.140309 1.35958,1.01446 2.49284,2.393035 2.92868,4.064463 0.0783,0.300114 0.10874,0.610693 0.16312,0.916038 0.17317,2.097408 0.0584,4.206674 -0.0213,6.306312 -0.0469,0.543324 -0.0445,1.086779 -0.004,1.629645 0,0 3.54914,1.744623 3.54914,1.744623 v 0 c -0.11646,-0.530341 -0.14762,-1.062328 -0.10113,-1.606396 0.0477,-2.122993 0.15848,-4.249296 0.0497,-6.371691 -0.0431,-0.323643 -0.0597,-0.651925 -0.12929,-0.970931 -0.38165,-1.750147 -1.53151,-3.226464 -2.88424,-4.341873 -1.60717,-0.932511 -3.95183,-2.47564 -5.93958,-3.270821 -2.41192,-0.964859 -4.99063,-1.406875 -7.58564,-1.305203 -2.72472,0.05826 -5.46851,0.166497 -8.08649,1.00135 0,0 3.26389,2.235292 3.26389,2.235292 z" /><path
       style="fill:#000000;stroke-width:0.264583"
       id="path396"
       d="m 163.62283,67.188791 c 0.5801,-1.55434 1.30363,-2.384745 2.77401,-3.146576 0.27996,-0.05591 0.55519,-0.146259 0.83987,-0.167725 1.93823,-0.146147 4.00977,0.567712 5.78183,1.2602 -0.64128,-0.505947 2.79278,1.464609 2.09624,1.095312 -0.76377,-0.404942 -1.47607,-0.911458 -2.2686,-1.256742 -0.34917,-0.152125 0.62632,0.434493 0.92468,0.671237 0.81505,0.64674 1.00878,0.884095 1.7368,1.616276 1.79056,1.933565 3.13059,4.18432 4.19832,6.579137 0.62517,1.610186 1.14059,3.260178 1.56782,4.933122 0.0811,0.321593 0.0429,0.174792 0.11353,0.440677 0,0 3.67397,1.533186 3.67397,1.533186 v 0 c -0.23182,-0.03084 -0.124,0.02569 -0.23344,-0.28085 -0.49224,-1.693164 -1.03545,-3.370537 -1.63526,-5.028853 -1.06387,-2.422684 -2.38775,-4.708318 -4.1431,-6.703824 -0.67138,-0.703832 -0.95904,-1.045089 -1.70963,-1.671519 -2.17423,-1.814571 -4.77538,-3.096376 -7.33119,-4.284702 -1.81199,-0.662181 -3.99938,-1.380728 -5.9594,-1.106681 -0.30986,0.04332 -0.60366,0.164775 -0.90548,0.247163 -0.24896,0.141103 -0.51161,0.260393 -0.74686,0.42331 -1.03271,0.715166 -1.7252,1.780754 -2.22153,2.911679 0,0 3.44742,1.936173 3.44742,1.936173 z" /></g></svg>
